<svg width="380" height="90" viewBox="0 0 380 90" fill="none" xmlns="http://www.w3.org/2000/svg">
<g clip-path="url(#clip0_193_2)">
<path d="M93.3753 71.2969H70.6253C69.3367 71.2969 68.292 72.3602 68.292 73.6719V87.3281C68.292 88.6398 69.3367 89.7031 70.6253 89.7031H93.3753C94.664 89.7031 95.7087 88.6398 95.7087 87.3281V73.6719C95.7087 72.3602 94.664 71.2969 93.3753 71.2969Z" fill="white" stroke="black" stroke-opacity="0.2" stroke-width="0.5"/>
<path d="M71.2527 78.0234C70.6423 77.6827 69.9458 77.4086 69.167 77.2185L69.1997 77.0704H72.3928C72.8256 77.0858 73.1768 77.2184 73.2911 77.6865L73.9851 81.0541L74.1976 82.0684L76.1413 77.0704H78.2399L75.1204 84.3921H73.0216L71.2527 78.0234ZM79.7836 84.3998H77.799L79.0403 77.0704H81.0249L79.7836 84.3998ZM86.9782 77.2495L86.7083 78.8323L86.5288 78.7544C86.1697 78.6062 85.6956 78.4581 85.0504 78.4738C84.2669 78.4738 83.9154 78.7933 83.9073 79.1052C83.9073 79.4484 84.3324 79.6745 85.0266 80.0099C86.17 80.5323 86.7004 81.1716 86.6925 82.006C86.6764 83.5265 85.3207 84.5091 83.2382 84.5091C82.3478 84.5012 81.4902 84.3215 81.0248 84.119L81.3025 82.4737L81.5638 82.5908C82.209 82.864 82.6336 82.9807 83.426 82.9807C83.9974 82.9807 84.61 82.7543 84.6178 82.2633C84.6178 81.9436 84.3568 81.7095 83.589 81.3508C82.8377 80.9998 81.8333 80.4151 81.8496 79.3624C81.8581 77.9355 83.2382 76.9375 85.1981 76.9375C85.9659 76.9375 86.5868 77.1012 86.9782 77.2495ZM89.616 81.8033H91.2657C91.1841 81.4368 90.8082 79.6824 90.8082 79.6824L90.6695 79.0508C90.5715 79.3237 90.4002 79.7682 90.4084 79.7525C90.4084 79.7525 89.7795 81.3822 89.616 81.8033ZM92.0659 77.0704L93.667 84.3997H91.8294C91.8294 84.3997 91.6495 83.5576 91.5926 83.3003H89.0444C88.9707 83.4951 88.6279 84.3997 88.6279 84.3997H86.5454L89.4934 77.6785C89.6976 77.2028 90.0573 77.0704 90.5307 77.0704H92.0659Z" fill="#1434CB"/>
</g>
<g clip-path="url(#clip1_193_2)">
<path d="M133.667 71H110.333C109.045 71 108 72.0633 108 73.375V87.625C108 88.9367 109.045 90 110.333 90H133.667C134.955 90 136 88.9367 136 87.625V73.375C136 72.0633 134.955 71 133.667 71Z" fill="#252525"/>
<path d="M118.5 86.4375C121.722 86.4375 124.334 83.7792 124.334 80.5C124.334 77.2208 121.722 74.5625 118.5 74.5625C115.279 74.5625 112.667 77.2208 112.667 80.5C112.667 83.7792 115.279 86.4375 118.5 86.4375Z" fill="#EB001B"/>
<path d="M125.5 86.4375C128.722 86.4375 131.334 83.7792 131.334 80.5C131.334 77.2208 128.722 74.5625 125.5 74.5625C122.279 74.5625 119.667 77.2208 119.667 80.5C119.667 83.7792 122.279 86.4375 125.5 86.4375Z" fill="#F79E1B"/>
<path fill-rule="evenodd" clip-rule="evenodd" d="M122 75.7495C123.417 76.8328 124.334 78.5574 124.334 80.4999C124.334 82.4425 123.417 84.1671 122 85.2504C120.583 84.1671 119.667 82.4425 119.667 80.4999C119.667 78.5574 120.583 76.8328 122 75.7495Z" fill="#FF5F00"/>
</g>
<g clip-path="url(#clip2_193_2)">
<path d="M173.667 71H150.333C149.045 71 148 72.0633 148 73.375V87.625C148 88.9367 149.045 90 150.333 90H173.667C174.955 90 176 88.9367 176 87.625V73.375C176 72.0633 174.955 71 173.667 71Z" fill="#016FD0"/>
<path fill-rule="evenodd" clip-rule="evenodd" d="M164.058 86.9052V80.1348L175.896 80.1456V82.0158L174.528 83.5042L175.896 85.0062V86.9161H173.712L172.551 85.612L171.398 86.921L164.058 86.9052Z" fill="#FFFFFE"/>
<path fill-rule="evenodd" clip-rule="evenodd" d="M164.849 86.1629V80.8799H169.25V82.0969H166.274V82.9231H169.179V84.1199H166.274V84.9313H169.25V86.1629H164.849Z" fill="#016FD0"/>
<path fill-rule="evenodd" clip-rule="evenodd" d="M169.228 86.1628L171.663 83.5183L169.228 80.8799H171.112L172.601 82.5543L174.093 80.8799H175.897V80.9215L173.513 83.5183L175.897 86.0879V86.1628H174.075L172.56 84.4716L171.061 86.1628H169.228Z" fill="#016FD0"/>
<path fill-rule="evenodd" clip-rule="evenodd" d="M164.611 74.1255H167.464L168.467 76.4421V74.1255H171.99L172.597 75.8611L173.207 74.1255H175.897V80.8959H161.68L164.611 74.1255Z" fill="#FFFFFE"/>
<path fill-rule="evenodd" clip-rule="evenodd" d="M165.151 74.8608L162.848 80.1395H164.427L164.862 79.0824H167.216L167.65 80.1395H169.269L166.976 74.8608H165.151ZM165.349 77.8978L166.039 76.2174L166.729 77.8978H165.349Z" fill="#016FD0"/>
<path fill-rule="evenodd" clip-rule="evenodd" d="M169.247 80.1386V74.8601L171.467 74.8679L172.61 78.113L173.76 74.8601H175.897V80.1386L174.522 80.151V76.5252L173.224 80.1386H171.968L170.644 76.5128V80.1386H169.247Z" fill="#016FD0"/>
</g>
<g clip-path="url(#clip3_193_2)">
<path d="M213.664 89.703L213.666 89.703C214.781 89.7128 215.695 88.7855 215.709 87.6299L215.709 73.3825C215.704 72.8236 215.486 72.2898 215.102 71.8987C214.719 71.5086 214.202 71.2923 213.664 71.297L190.334 71.2969C189.798 71.2923 189.282 71.5086 188.899 71.8987C188.515 72.2898 188.296 72.8236 188.292 73.3801L188.292 87.6175C188.296 88.1764 188.515 88.7102 188.899 89.1013C189.282 89.4914 189.798 89.7077 190.337 89.703H213.664ZM213.663 90.2968L213.661 90.2968L213.664 90.2968H213.663Z" fill="white" stroke="black" stroke-opacity="0.2" stroke-width="0.5"/>
<path d="M202.715 89.9999H213.664C214.278 90.0052 214.87 89.7617 215.308 89.323C215.746 88.8844 215.995 88.2865 216 87.661V84.8601C211.866 87.2759 207.382 89.0106 202.715 89.9999Z" fill="#F27712"/>
<path d="M215.035 82.0395H214.04L212.92 80.5359H212.814V82.0395H212.003V78.3051H213.2C214.137 78.3051 214.678 78.6982 214.678 79.4058C214.678 79.9856 214.34 80.359 213.731 80.477L215.035 82.0395ZM213.838 79.4352C213.838 79.0716 213.567 78.8849 213.065 78.8849H212.814V80.0151H213.046C213.567 80.0151 213.838 79.8185 213.838 79.4352ZM209.164 78.3051H211.462V78.934H209.975V79.7694H211.404V80.4082H209.975V81.4204H211.462V82.0494H209.164V78.3051ZM206.558 82.1378L204.8 78.2952H205.689L206.799 80.8111L207.919 78.2952H208.788L207.011 82.1378H206.577H206.558ZM199.21 82.128C197.974 82.128 197.009 81.273 197.009 80.1625C197.009 79.0814 197.993 78.2068 199.229 78.2068C199.577 78.2068 199.867 78.2756 200.224 78.4328V79.2976C199.953 79.0271 199.589 78.8754 199.21 78.8751C198.438 78.8751 197.849 79.4451 197.849 80.1625C197.849 80.9192 198.428 81.4597 199.249 81.4597C199.615 81.4597 199.895 81.3418 200.224 81.047V81.9118C199.857 82.069 199.548 82.128 199.21 82.128ZM196.758 80.8995C196.758 81.6268 196.169 82.128 195.319 82.128C194.701 82.128 194.257 81.9118 193.88 81.4204L194.411 80.9585C194.595 81.2926 194.904 81.4597 195.29 81.4597C195.657 81.4597 195.918 81.2337 195.918 80.9389C195.918 80.7718 195.84 80.644 195.676 80.5458C195.496 80.4569 195.309 80.3845 195.116 80.3295C194.353 80.0839 194.093 79.8185 194.093 79.2976C194.093 78.6883 194.653 78.2264 195.387 78.2264C195.85 78.2264 196.265 78.3739 196.613 78.649L196.188 79.1404C196.02 78.9525 195.781 78.8455 195.531 78.8456C195.184 78.8456 194.933 79.0225 194.933 79.2583C194.933 79.4549 195.078 79.563 195.56 79.7301C196.487 80.0249 196.758 80.3001 196.758 80.9094V80.8995ZM192.77 78.3051H193.581V82.0494H192.77V78.3051ZM190.163 82.0494H188.966V78.3051H190.163C191.476 78.3051 192.384 79.0716 192.384 80.1723C192.384 80.7325 192.113 81.2632 191.64 81.617C191.235 81.9118 190.781 82.0494 190.153 82.0494H190.163ZM191.109 79.2387C190.839 79.0225 190.53 78.9439 189.999 78.9439H189.777V81.4204H189.999C190.52 81.4204 190.849 81.3221 191.109 81.1256C191.389 80.8897 191.553 80.5359 191.553 80.1723C191.553 79.8087 191.389 79.4647 191.109 79.2387Z" fill="black"/>
<path d="M202.483 78.2068C201.421 78.2068 200.552 79.0716 200.552 80.1428C200.552 81.2828 201.382 82.1378 202.483 82.1378C203.564 82.1378 204.414 81.273 204.414 80.1723C204.414 79.0716 203.574 78.2068 202.483 78.2068Z" fill="#F27712"/>
</g>
<g clip-path="url(#clip4_193_2)">
<path d="M254.133 90H229.867C229.372 90 228.897 89.7998 228.547 89.4435C228.197 89.0872 228 88.6039 228 88.1V72.9C228 72.3961 228.197 71.9128 228.547 71.5565C228.897 71.2002 229.372 71 229.867 71H254.133C254.628 71 255.103 71.2002 255.453 71.5565C255.803 71.9128 256 72.3961 256 72.9V88.1C256 88.6039 255.803 89.0872 255.453 89.4435C255.103 89.7998 254.628 90 254.133 90ZM249.617 84.3713V85.25C249.74 85.2674 249.883 85.2777 250.027 85.2777H250.04C251.124 85.2777 251.638 84.8486 252.082 83.578L254.037 77.9968H252.906L251.595 82.3082H251.571L250.26 77.9968H249.096L250.983 83.3112L250.881 83.6342C250.847 83.8578 250.731 84.0601 250.557 84.2009C250.383 84.3417 250.163 84.4107 249.941 84.3942H249.944C249.835 84.3896 249.726 84.3819 249.618 84.3713H249.617ZM232.443 77.3761H232.423C232.096 77.3852 231.776 77.4804 231.496 77.6526C231.215 77.8248 230.983 78.068 230.823 78.3585L230.818 78.368C230.161 79.5175 230.579 81.2766 231.306 82.3477C231.646 82.8544 232.02 83.35 232.512 83.35H232.538C232.744 83.3365 232.935 83.2819 233.107 83.194L233.098 83.198C233.306 83.0919 233.55 83.0294 233.808 83.027C234.058 83.0286 234.295 83.0903 234.502 83.198L234.494 83.194C234.661 83.2827 234.858 83.3365 235.067 83.3413H235.089C235.638 83.331 235.982 82.8188 236.286 82.3675C236.503 82.0477 236.682 81.6796 236.808 81.2861L236.817 81.256V81.2481L236.803 81.2418C236.499 81.1032 236.241 80.8787 236.06 80.595C235.878 80.3114 235.78 79.9805 235.778 79.6418V79.641C235.78 79.342 235.857 79.0484 236 78.7873C236.144 78.5263 236.349 78.3061 236.598 78.1472L236.605 78.1432L236.619 78.1337C236.46 77.8978 236.247 77.7036 236 77.5669C235.753 77.4302 235.477 77.3547 235.196 77.3468H235.111C234.778 77.364 234.45 77.4465 234.148 77.5898L234.164 77.5827C234.021 77.6529 233.868 77.6986 233.71 77.7181L233.703 77.7189C233.534 77.7007 233.369 77.6522 233.217 77.5756L233.225 77.5795C232.982 77.4615 232.719 77.3919 232.45 77.3745H232.443V77.3761ZM246.531 78.8138C247.216 78.8138 247.594 79.1399 247.594 79.7313V80.1343L246.205 80.2182C244.902 80.2981 244.214 80.8357 244.214 81.7722C244.216 81.9975 244.265 82.2198 244.357 82.4246C244.45 82.6293 244.584 82.8118 244.75 82.9602C244.917 83.1086 245.112 83.2196 245.324 83.2858C245.536 83.352 245.759 83.372 245.978 83.3445L245.971 83.3453L246.021 83.346C246.697 83.346 247.288 82.9755 247.609 82.4222L247.613 82.4135H247.637V83.2859H248.667V79.6553C248.667 78.6024 247.842 77.9231 246.565 77.9231C245.387 77.9231 244.511 78.6103 244.476 79.5563H245.48C245.538 79.3236 245.678 79.1203 245.872 78.9837C246.066 78.8472 246.302 78.7865 246.537 78.813L246.532 78.8122L246.531 78.8138ZM238.889 75.9907V83.2867H240.002V80.7913H241.54C241.856 80.8085 242.173 80.7581 242.47 80.6433C242.766 80.5286 243.036 80.3521 243.262 80.125C243.488 79.898 243.664 79.6255 243.78 79.325C243.897 79.0245 243.95 78.7026 243.937 78.3799V78.3847C243.95 78.0655 243.899 77.7468 243.785 77.4492C243.67 77.1515 243.497 76.8814 243.274 76.656C243.051 76.4307 242.785 76.2551 242.492 76.1406C242.199 76.026 241.886 75.9749 241.572 75.9907H241.578H238.889ZM235.197 75.4333C234.752 75.4762 234.341 75.6917 234.048 76.035L234.046 76.0374C233.901 76.2036 233.789 76.3978 233.718 76.6085C233.647 76.8192 233.619 77.0422 233.633 77.2645V77.2597C233.66 77.2597 233.688 77.2629 233.719 77.2629C233.926 77.2514 234.129 77.1957 234.313 77.0992C234.498 77.0028 234.661 76.8678 234.791 76.7032L234.793 76.7C235.087 76.3461 235.232 75.8889 235.198 75.427V75.4325L235.197 75.4333ZM246.269 82.48C245.68 82.48 245.298 82.191 245.298 81.7445C245.298 81.2837 245.663 81.0185 246.356 80.9766L247.592 80.8974V81.3099C247.585 81.4772 247.545 81.6413 247.473 81.7921C247.402 81.9429 247.301 82.0772 247.176 82.1868C247.052 82.2963 246.907 82.3787 246.75 82.429C246.593 82.4793 246.427 82.4964 246.264 82.4792L246.269 82.48ZM241.277 79.8437H239.999V76.9454H241.282C241.48 76.9179 241.681 76.9356 241.871 76.9974C242.061 77.0591 242.235 77.1633 242.381 77.3023C242.526 77.4413 242.639 77.6116 242.712 77.8008C242.784 77.99 242.814 78.1932 242.8 78.3958V78.391C242.814 78.5946 242.783 78.7988 242.71 78.9887C242.636 79.1786 242.522 79.3494 242.375 79.4886C242.228 79.6277 242.053 79.7317 241.862 79.7929C241.67 79.854 241.468 79.8709 241.27 79.8421L241.277 79.8437Z" fill="black"/>
</g>
<g clip-path="url(#clip5_193_2)">
<path d="M299.898 76.1278C301.135 76.1278 302.091 76.4854 302.822 77.2005C303.553 77.9155 303.89 78.8689 303.89 80.0607V85.7812H302.316V84.4704H302.26C301.585 85.5431 300.629 86.0793 299.504 86.0793C298.548 86.0793 297.705 85.7813 297.03 85.1855C296.412 84.5896 296.018 83.7554 296.018 82.8615C296.018 81.9081 296.355 81.1334 297.03 80.5375C297.705 79.9416 298.661 79.7033 299.785 79.7033C300.798 79.7033 301.585 79.8821 302.203 80.2991V79.8821C302.203 79.3259 302.008 78.7697 301.616 78.4073L301.529 78.3327C301.079 77.9156 300.516 77.6772 299.898 77.6772C298.942 77.6772 298.211 78.0944 297.705 78.9286L296.243 77.975C297.143 76.7236 298.323 76.1278 299.898 76.1278ZM291.969 72.0757C292.978 72.0757 293.937 72.4478 294.704 73.1416L294.837 73.2674C295.624 73.9825 296.018 75.0551 296.018 76.1873C296.018 77.3195 295.624 78.3326 294.837 79.1072C294.05 79.8819 293.094 80.299 291.969 80.299L289.27 80.2394V85.7812H287.583V72.0757H291.969ZM300.123 81.1333C299.448 81.1333 298.886 81.312 298.436 81.6696C297.986 81.9675 297.761 82.3846 297.761 82.9209C297.761 83.3976 297.986 83.8147 298.323 84.0531C298.717 84.3511 299.167 84.5298 299.617 84.5298C300.247 84.5298 300.876 84.2702 301.369 83.7996L301.472 83.6956C302.035 83.1593 302.316 82.5038 302.316 81.7887C301.81 81.3716 301.079 81.1332 300.123 81.1332M292.082 73.7441H289.27V78.5115H292.082C292.7 78.5115 293.319 78.2731 293.712 77.7965C294.612 76.9026 294.612 75.4129 293.769 74.519L293.712 74.4593C293.263 73.9827 292.7 73.6847 292.082 73.7443M313 76.4258L307.433 89.9525H305.746L307.827 85.245L304.172 76.4854H305.971L308.614 83.2189H308.67L311.257 76.4854H313V76.4258Z" fill="#5F6368"/>
<path d="M282.578 79.0478C282.578 78.5115 282.522 77.9752 282.465 77.439H275.437V80.478H279.429C279.26 81.4314 278.754 82.3252 277.967 82.8616V84.828H280.385C281.791 83.4575 282.578 81.4314 282.578 79.0479" fill="#4285F4"/>
<path d="M275.437 86.7347C277.461 86.7347 279.148 86.0196 280.386 84.8278L277.968 82.8614C277.293 83.3381 276.449 83.636 275.437 83.636C273.525 83.636 271.838 82.2655 271.276 80.3586H268.802V82.3847C270.095 85.0662 272.626 86.7347 275.437 86.7347Z" fill="#34A853"/>
<path d="M271.275 80.3588C270.938 79.4053 270.938 78.3328 271.275 77.3197V75.2937H268.801C267.733 77.4985 267.733 80.1204 268.801 82.3848L271.275 80.3588Z" fill="#FBBC04"/>
<path d="M275.437 74.1016C276.505 74.1016 277.517 74.5188 278.305 75.2934L280.441 73.0291C279.092 71.7181 277.292 70.9434 275.493 71.003C272.681 71.003 270.095 72.6715 268.857 75.353L271.332 77.379C271.838 75.4721 273.525 74.1016 275.437 74.1016Z" fill="#EA4335"/>
</g>
<path d="M111.377 61.066C110.805 61.066 110.255 60.9743 109.727 60.791C109.206 60.6003 108.803 60.3583 108.517 60.065L108.836 59.438C109.107 59.702 109.47 59.9257 109.925 60.109C110.387 60.285 110.871 60.373 111.377 60.373C111.861 60.373 112.253 60.3143 112.554 60.197C112.862 60.0723 113.086 59.9073 113.225 59.702C113.372 59.4967 113.445 59.2693 113.445 59.02C113.445 58.7193 113.357 58.4773 113.181 58.294C113.012 58.1107 112.789 57.9677 112.51 57.865C112.231 57.755 111.923 57.6597 111.586 57.579C111.249 57.4983 110.911 57.414 110.574 57.326C110.237 57.2307 109.925 57.106 109.639 56.952C109.36 56.798 109.133 56.5963 108.957 56.347C108.788 56.0903 108.704 55.7567 108.704 55.346C108.704 54.9647 108.803 54.6163 109.001 54.301C109.206 53.9783 109.518 53.7217 109.936 53.531C110.354 53.333 110.889 53.234 111.542 53.234C111.975 53.234 112.404 53.2963 112.829 53.421C113.254 53.5383 113.621 53.7033 113.929 53.916L113.654 54.565C113.324 54.345 112.972 54.1837 112.598 54.081C112.231 53.9783 111.876 53.927 111.531 53.927C111.069 53.927 110.688 53.9893 110.387 54.114C110.086 54.2387 109.863 54.4073 109.716 54.62C109.577 54.8253 109.507 55.06 109.507 55.324C109.507 55.6247 109.591 55.8667 109.76 56.05C109.936 56.2333 110.163 56.3763 110.442 56.479C110.728 56.5817 111.04 56.6733 111.377 56.754C111.714 56.8347 112.048 56.9227 112.378 57.018C112.715 57.1133 113.023 57.238 113.302 57.392C113.588 57.5387 113.815 57.7367 113.984 57.986C114.16 58.2353 114.248 58.5617 114.248 58.965C114.248 59.339 114.145 59.6873 113.94 60.01C113.735 60.3253 113.419 60.582 112.994 60.78C112.576 60.9707 112.037 61.066 111.377 61.066ZM118.244 61.055C117.752 61.055 117.323 60.9633 116.957 60.78C116.59 60.5967 116.304 60.3217 116.099 59.955C115.901 59.5883 115.802 59.13 115.802 58.58V55.225H116.583V58.492C116.583 59.108 116.733 59.5737 117.034 59.889C117.342 60.197 117.771 60.351 118.321 60.351C118.724 60.351 119.072 60.2703 119.366 60.109C119.666 59.9403 119.894 59.6983 120.048 59.383C120.209 59.0677 120.29 58.69 120.29 58.25V55.225H121.071V61H120.323V59.416L120.444 59.702C120.26 60.1273 119.974 60.461 119.586 60.703C119.204 60.9377 118.757 61.055 118.244 61.055ZM126.228 61.055C125.73 61.055 125.279 60.9413 124.875 60.714C124.472 60.4793 124.149 60.1457 123.907 59.713C123.673 59.273 123.555 58.7377 123.555 58.107C123.555 57.4763 123.673 56.9447 123.907 56.512C124.142 56.072 124.461 55.7383 124.864 55.511C125.268 55.2837 125.722 55.17 126.228 55.17C126.778 55.17 127.27 55.2947 127.702 55.544C128.142 55.786 128.487 56.1307 128.736 56.578C128.986 57.018 129.11 57.5277 129.11 58.107C129.11 58.6937 128.986 59.207 128.736 59.647C128.487 60.087 128.142 60.4317 127.702 60.681C127.27 60.9303 126.778 61.055 126.228 61.055ZM123.247 63.134V55.225H123.995V56.963L123.918 58.118L124.028 59.284V63.134H123.247ZM126.173 60.362C126.584 60.362 126.951 60.2703 127.273 60.087C127.596 59.8963 127.853 59.6323 128.043 59.295C128.234 58.9503 128.329 58.5543 128.329 58.107C128.329 57.6597 128.234 57.2673 128.043 56.93C127.853 56.5927 127.596 56.3287 127.273 56.138C126.951 55.9473 126.584 55.852 126.173 55.852C125.763 55.852 125.392 55.9473 125.062 56.138C124.74 56.3287 124.483 56.5927 124.292 56.93C124.109 57.2673 124.017 57.6597 124.017 58.107C124.017 58.5543 124.109 58.9503 124.292 59.295C124.483 59.6323 124.74 59.8963 125.062 60.087C125.392 60.2703 125.763 60.362 126.173 60.362ZM133.683 61.055C133.185 61.055 132.734 60.9413 132.33 60.714C131.927 60.4793 131.604 60.1457 131.362 59.713C131.128 59.273 131.01 58.7377 131.01 58.107C131.01 57.4763 131.128 56.9447 131.362 56.512C131.597 56.072 131.916 55.7383 132.319 55.511C132.723 55.2837 133.177 55.17 133.683 55.17C134.233 55.17 134.725 55.2947 135.157 55.544C135.597 55.786 135.942 56.1307 136.191 56.578C136.441 57.018 136.565 57.5277 136.565 58.107C136.565 58.6937 136.441 59.207 136.191 59.647C135.942 60.087 135.597 60.4317 135.157 60.681C134.725 60.9303 134.233 61.055 133.683 61.055ZM130.702 63.134V55.225H131.45V56.963L131.373 58.118L131.483 59.284V63.134H130.702ZM133.628 60.362C134.039 60.362 134.406 60.2703 134.728 60.087C135.051 59.8963 135.308 59.6323 135.498 59.295C135.689 58.9503 135.784 58.5543 135.784 58.107C135.784 57.6597 135.689 57.2673 135.498 56.93C135.308 56.5927 135.051 56.3287 134.728 56.138C134.406 55.9473 134.039 55.852 133.628 55.852C133.218 55.852 132.847 55.9473 132.517 56.138C132.195 56.3287 131.938 56.5927 131.747 56.93C131.564 57.2673 131.472 57.6597 131.472 58.107C131.472 58.5543 131.564 58.9503 131.747 59.295C131.938 59.6323 132.195 59.8963 132.517 60.087C132.847 60.2703 133.218 60.362 133.628 60.362ZM140.511 61.055C139.954 61.055 139.452 60.9303 139.004 60.681C138.564 60.4243 138.216 60.076 137.959 59.636C137.703 59.1887 137.574 58.679 137.574 58.107C137.574 57.5277 137.703 57.018 137.959 56.578C138.216 56.138 138.564 55.7933 139.004 55.544C139.444 55.2947 139.947 55.17 140.511 55.17C141.083 55.17 141.589 55.2947 142.029 55.544C142.477 55.7933 142.825 56.138 143.074 56.578C143.331 57.018 143.459 57.5277 143.459 58.107C143.459 58.679 143.331 59.1887 143.074 59.636C142.825 60.076 142.477 60.4243 142.029 60.681C141.582 60.9303 141.076 61.055 140.511 61.055ZM140.511 60.362C140.929 60.362 141.3 60.2703 141.622 60.087C141.945 59.8963 142.198 59.6323 142.381 59.295C142.572 58.9503 142.667 58.5543 142.667 58.107C142.667 57.6523 142.572 57.2563 142.381 56.919C142.198 56.5817 141.945 56.3213 141.622 56.138C141.3 55.9473 140.933 55.852 140.522 55.852C140.112 55.852 139.745 55.9473 139.422 56.138C139.1 56.3213 138.843 56.5817 138.652 56.919C138.462 57.2563 138.366 57.6523 138.366 58.107C138.366 58.5543 138.462 58.9503 138.652 59.295C138.843 59.6323 139.1 59.8963 139.422 60.087C139.745 60.2703 140.108 60.362 140.511 60.362ZM145.054 61V55.225H145.802V56.798L145.725 56.523C145.886 56.083 146.158 55.7493 146.539 55.522C146.92 55.2873 147.393 55.17 147.958 55.17V55.929C147.929 55.929 147.899 55.929 147.87 55.929C147.841 55.9217 147.811 55.918 147.782 55.918C147.173 55.918 146.697 56.105 146.352 56.479C146.007 56.8457 145.835 57.37 145.835 58.052V61H145.054ZM151.456 61.055C150.913 61.055 150.495 60.9083 150.202 60.615C149.909 60.3217 149.762 59.9073 149.762 59.372V53.949H150.543V59.328C150.543 59.6653 150.627 59.9257 150.796 60.109C150.972 60.2923 151.221 60.384 151.544 60.384C151.889 60.384 152.175 60.285 152.402 60.087L152.677 60.648C152.523 60.7873 152.336 60.89 152.116 60.956C151.903 61.022 151.683 61.055 151.456 61.055ZM148.728 55.874V55.225H152.303V55.874H148.728ZM156.348 61.055C155.746 61.055 155.218 60.9303 154.764 60.681C154.309 60.4243 153.953 60.076 153.697 59.636C153.44 59.1887 153.312 58.679 153.312 58.107C153.312 57.535 153.433 57.029 153.675 56.589C153.924 56.149 154.261 55.8043 154.687 55.555C155.119 55.2983 155.603 55.17 156.139 55.17C156.681 55.17 157.162 55.2947 157.58 55.544C158.005 55.786 158.339 56.1307 158.581 56.578C158.823 57.018 158.944 57.5277 158.944 58.107C158.944 58.1437 158.94 58.184 158.933 58.228C158.933 58.2647 158.933 58.305 158.933 58.349H153.906V57.766H158.515L158.207 57.997C158.207 57.579 158.115 57.2087 157.932 56.886C157.756 56.556 157.514 56.2993 157.206 56.116C156.898 55.9327 156.542 55.841 156.139 55.841C155.743 55.841 155.387 55.9327 155.072 56.116C154.756 56.2993 154.511 56.556 154.335 56.886C154.159 57.216 154.071 57.5937 154.071 58.019V58.14C154.071 58.58 154.166 58.9687 154.357 59.306C154.555 59.636 154.826 59.8963 155.171 60.087C155.523 60.2703 155.922 60.362 156.37 60.362C156.722 60.362 157.048 60.2997 157.349 60.175C157.657 60.0503 157.921 59.8597 158.141 59.603L158.581 60.109C158.324 60.417 158.001 60.6517 157.613 60.813C157.231 60.9743 156.81 61.055 156.348 61.055ZM162.832 61.055C162.282 61.055 161.787 60.9303 161.347 60.681C160.915 60.4317 160.574 60.087 160.324 59.647C160.075 59.1997 159.95 58.6863 159.95 58.107C159.95 57.5203 160.075 57.007 160.324 56.567C160.574 56.127 160.915 55.786 161.347 55.544C161.787 55.2947 162.282 55.17 162.832 55.17C163.338 55.17 163.789 55.2837 164.185 55.511C164.589 55.7383 164.908 56.072 165.142 56.512C165.384 56.9447 165.505 57.4763 165.505 58.107C165.505 58.7303 165.388 59.262 165.153 59.702C164.919 60.142 164.6 60.4793 164.196 60.714C163.8 60.9413 163.346 61.055 162.832 61.055ZM162.887 60.362C163.298 60.362 163.665 60.2703 163.987 60.087C164.317 59.8963 164.574 59.6323 164.757 59.295C164.948 58.9503 165.043 58.5543 165.043 58.107C165.043 57.6523 164.948 57.2563 164.757 56.919C164.574 56.5817 164.317 56.3213 163.987 56.138C163.665 55.9473 163.298 55.852 162.887 55.852C162.484 55.852 162.121 55.9473 161.798 56.138C161.476 56.3213 161.219 56.5817 161.028 56.919C160.838 57.2563 160.742 57.6523 160.742 58.107C160.742 58.5543 160.838 58.9503 161.028 59.295C161.219 59.6323 161.476 59.8963 161.798 60.087C162.121 60.2703 162.484 60.362 162.887 60.362ZM165.065 61V59.262L165.142 58.096L165.032 56.93V52.838H165.813V61H165.065ZM173.848 61.055C173.35 61.055 172.899 60.9413 172.495 60.714C172.092 60.4793 171.769 60.1457 171.527 59.713C171.293 59.273 171.175 58.7377 171.175 58.107C171.175 57.4763 171.293 56.9447 171.527 56.512C171.762 56.072 172.081 55.7383 172.484 55.511C172.888 55.2837 173.342 55.17 173.848 55.17C174.398 55.17 174.89 55.2947 175.322 55.544C175.762 55.786 176.107 56.1307 176.356 56.578C176.606 57.018 176.73 57.5277 176.73 58.107C176.73 58.6937 176.606 59.207 176.356 59.647C176.107 60.087 175.762 60.4317 175.322 60.681C174.89 60.9303 174.398 61.055 173.848 61.055ZM170.867 63.134V55.225H171.615V56.963L171.538 58.118L171.648 59.284V63.134H170.867ZM173.793 60.362C174.204 60.362 174.571 60.2703 174.893 60.087C175.216 59.8963 175.473 59.6323 175.663 59.295C175.854 58.9503 175.949 58.5543 175.949 58.107C175.949 57.6597 175.854 57.2673 175.663 56.93C175.473 56.5927 175.216 56.3287 174.893 56.138C174.571 55.9473 174.204 55.852 173.793 55.852C173.383 55.852 173.012 55.9473 172.682 56.138C172.36 56.3287 172.103 56.5927 171.912 56.93C171.729 57.2673 171.637 57.6597 171.637 58.107C171.637 58.5543 171.729 58.9503 171.912 59.295C172.103 59.6323 172.36 59.8963 172.682 60.087C173.012 60.2703 173.383 60.362 173.793 60.362ZM181.909 61V59.724L181.876 59.515V57.381C181.876 56.8897 181.737 56.512 181.458 56.248C181.187 55.984 180.78 55.852 180.237 55.852C179.863 55.852 179.508 55.9143 179.17 56.039C178.833 56.1637 178.547 56.3287 178.312 56.534L177.96 55.951C178.254 55.7017 178.606 55.511 179.016 55.379C179.427 55.2397 179.86 55.17 180.314 55.17C181.062 55.17 181.638 55.357 182.041 55.731C182.452 56.0977 182.657 56.6587 182.657 57.414V61H181.909ZM179.918 61.055C179.486 61.055 179.108 60.9853 178.785 60.846C178.47 60.6993 178.228 60.5013 178.059 60.252C177.891 59.9953 177.806 59.702 177.806 59.372C177.806 59.0713 177.876 58.8 178.015 58.558C178.162 58.3087 178.397 58.1107 178.719 57.964C179.049 57.81 179.489 57.733 180.039 57.733H182.03V58.316H180.061C179.504 58.316 179.115 58.415 178.895 58.613C178.683 58.811 178.576 59.0567 178.576 59.35C178.576 59.68 178.705 59.944 178.961 60.142C179.218 60.34 179.577 60.439 180.039 60.439C180.479 60.439 180.857 60.34 181.172 60.142C181.495 59.9367 181.73 59.6433 181.876 59.262L182.052 59.801C181.906 60.1823 181.649 60.4867 181.282 60.714C180.923 60.9413 180.468 61.055 179.918 61.055ZM184.715 63.189C184.444 63.189 184.183 63.145 183.934 63.057C183.692 62.969 183.483 62.837 183.307 62.661L183.67 62.078C183.817 62.2173 183.974 62.3237 184.143 62.397C184.319 62.4777 184.513 62.518 184.726 62.518C184.983 62.518 185.203 62.4447 185.386 62.298C185.577 62.1587 185.756 61.9093 185.925 61.55L186.299 60.703L186.387 60.582L188.763 55.225H189.533L186.64 61.693C186.479 62.067 186.299 62.364 186.101 62.584C185.91 62.804 185.701 62.958 185.474 63.046C185.247 63.1413 184.994 63.189 184.715 63.189ZM186.255 61.165L183.593 55.225H184.407L186.761 60.527L186.255 61.165ZM197.849 55.17C198.318 55.17 198.725 55.2617 199.07 55.445C199.422 55.621 199.693 55.8923 199.884 56.259C200.082 56.6257 200.181 57.0877 200.181 57.645V61H199.4V57.722C199.4 57.1133 199.253 56.655 198.96 56.347C198.674 56.0317 198.267 55.874 197.739 55.874C197.343 55.874 196.998 55.9583 196.705 56.127C196.419 56.2883 196.195 56.5267 196.034 56.842C195.88 57.15 195.803 57.524 195.803 57.964V61H195.022V57.722C195.022 57.1133 194.875 56.655 194.582 56.347C194.289 56.0317 193.878 55.874 193.35 55.874C192.961 55.874 192.62 55.9583 192.327 56.127C192.034 56.2883 191.806 56.5267 191.645 56.842C191.491 57.15 191.414 57.524 191.414 57.964V61H190.633V55.225H191.381V56.787L191.26 56.512C191.436 56.094 191.718 55.7677 192.107 55.533C192.503 55.291 192.969 55.17 193.504 55.17C194.069 55.17 194.549 55.313 194.945 55.599C195.341 55.8777 195.598 56.2993 195.715 56.864L195.407 56.743C195.576 56.2737 195.873 55.896 196.298 55.61C196.731 55.3167 197.248 55.17 197.849 55.17ZM204.752 61.055C204.151 61.055 203.623 60.9303 203.168 60.681C202.713 60.4243 202.358 60.076 202.101 59.636C201.844 59.1887 201.716 58.679 201.716 58.107C201.716 57.535 201.837 57.029 202.079 56.589C202.328 56.149 202.666 55.8043 203.091 55.555C203.524 55.2983 204.008 55.17 204.543 55.17C205.086 55.17 205.566 55.2947 205.984 55.544C206.409 55.786 206.743 56.1307 206.985 56.578C207.227 57.018 207.348 57.5277 207.348 58.107C207.348 58.1437 207.344 58.184 207.337 58.228C207.337 58.2647 207.337 58.305 207.337 58.349H202.31V57.766H206.919L206.611 57.997C206.611 57.579 206.519 57.2087 206.336 56.886C206.16 56.556 205.918 56.2993 205.61 56.116C205.302 55.9327 204.946 55.841 204.543 55.841C204.147 55.841 203.791 55.9327 203.476 56.116C203.161 56.2993 202.915 56.556 202.739 56.886C202.563 57.216 202.475 57.5937 202.475 58.019V58.14C202.475 58.58 202.57 58.9687 202.761 59.306C202.959 59.636 203.23 59.8963 203.575 60.087C203.927 60.2703 204.327 60.362 204.774 60.362C205.126 60.362 205.452 60.2997 205.753 60.175C206.061 60.0503 206.325 59.8597 206.545 59.603L206.985 60.109C206.728 60.417 206.406 60.6517 206.017 60.813C205.636 60.9743 205.214 61.055 204.752 61.055ZM211.886 55.17C212.355 55.17 212.766 55.2617 213.118 55.445C213.477 55.621 213.756 55.8923 213.954 56.259C214.159 56.6257 214.262 57.0877 214.262 57.645V61H213.481V57.722C213.481 57.1133 213.327 56.655 213.019 56.347C212.718 56.0317 212.293 55.874 211.743 55.874C211.332 55.874 210.973 55.9583 210.665 56.127C210.364 56.2883 210.129 56.5267 209.961 56.842C209.799 57.15 209.719 57.524 209.719 57.964V61H208.938V55.225H209.686V56.809L209.565 56.512C209.748 56.094 210.041 55.7677 210.445 55.533C210.848 55.291 211.328 55.17 211.886 55.17ZM218.197 61.055C217.655 61.055 217.237 60.9083 216.943 60.615C216.65 60.3217 216.503 59.9073 216.503 59.372V53.949H217.284V59.328C217.284 59.6653 217.369 59.9257 217.537 60.109C217.713 60.2923 217.963 60.384 218.285 60.384C218.63 60.384 218.916 60.285 219.143 60.087L219.418 60.648C219.264 60.7873 219.077 60.89 218.857 60.956C218.645 61.022 218.425 61.055 218.197 61.055ZM215.469 55.874V55.225H219.044V55.874H215.469ZM230.935 55.17C231.404 55.17 231.811 55.2617 232.156 55.445C232.508 55.621 232.779 55.8923 232.97 56.259C233.168 56.6257 233.267 57.0877 233.267 57.645V61H232.486V57.722C232.486 57.1133 232.339 56.655 232.046 56.347C231.76 56.0317 231.353 55.874 230.825 55.874C230.429 55.874 230.084 55.9583 229.791 56.127C229.505 56.2883 229.281 56.5267 229.12 56.842C228.966 57.15 228.889 57.524 228.889 57.964V61H228.108V57.722C228.108 57.1133 227.961 56.655 227.668 56.347C227.375 56.0317 226.964 55.874 226.436 55.874C226.047 55.874 225.706 55.9583 225.413 56.127C225.12 56.2883 224.892 56.5267 224.731 56.842C224.577 57.15 224.5 57.524 224.5 57.964V61H223.719V55.225H224.467V56.787L224.346 56.512C224.522 56.094 224.804 55.7677 225.193 55.533C225.589 55.291 226.055 55.17 226.59 55.17C227.155 55.17 227.635 55.313 228.031 55.599C228.427 55.8777 228.684 56.2993 228.801 56.864L228.493 56.743C228.662 56.2737 228.959 55.896 229.384 55.61C229.817 55.3167 230.334 55.17 230.935 55.17ZM237.838 61.055C237.237 61.055 236.709 60.9303 236.254 60.681C235.799 60.4243 235.444 60.076 235.187 59.636C234.93 59.1887 234.802 58.679 234.802 58.107C234.802 57.535 234.923 57.029 235.165 56.589C235.414 56.149 235.752 55.8043 236.177 55.555C236.61 55.2983 237.094 55.17 237.629 55.17C238.172 55.17 238.652 55.2947 239.07 55.544C239.495 55.786 239.829 56.1307 240.071 56.578C240.313 57.018 240.434 57.5277 240.434 58.107C240.434 58.1437 240.43 58.184 240.423 58.228C240.423 58.2647 240.423 58.305 240.423 58.349H235.396V57.766H240.005L239.697 57.997C239.697 57.579 239.605 57.2087 239.422 56.886C239.246 56.556 239.004 56.2993 238.696 56.116C238.388 55.9327 238.032 55.841 237.629 55.841C237.233 55.841 236.877 55.9327 236.562 56.116C236.247 56.2993 236.001 56.556 235.825 56.886C235.649 57.216 235.561 57.5937 235.561 58.019V58.14C235.561 58.58 235.656 58.9687 235.847 59.306C236.045 59.636 236.316 59.8963 236.661 60.087C237.013 60.2703 237.413 60.362 237.86 60.362C238.212 60.362 238.538 60.2997 238.839 60.175C239.147 60.0503 239.411 59.8597 239.631 59.603L240.071 60.109C239.814 60.417 239.492 60.6517 239.103 60.813C238.722 60.9743 238.3 61.055 237.838 61.055ZM243.85 61.055C243.307 61.055 242.889 60.9083 242.596 60.615C242.302 60.3217 242.156 59.9073 242.156 59.372V53.949H242.937V59.328C242.937 59.6653 243.021 59.9257 243.19 60.109C243.366 60.2923 243.615 60.384 243.938 60.384C244.282 60.384 244.568 60.285 244.796 60.087L245.071 60.648C244.917 60.7873 244.73 60.89 244.51 60.956C244.297 61.022 244.077 61.055 243.85 61.055ZM241.122 55.874V55.225H244.697V55.874H241.122ZM249.44 55.17C249.91 55.17 250.32 55.2617 250.672 55.445C251.032 55.621 251.31 55.8923 251.508 56.259C251.714 56.6257 251.816 57.0877 251.816 57.645V61H251.035V57.722C251.035 57.1133 250.881 56.655 250.573 56.347C250.273 56.0317 249.847 55.874 249.297 55.874C248.887 55.874 248.527 55.9583 248.219 56.127C247.919 56.2883 247.684 56.5267 247.515 56.842C247.354 57.15 247.273 57.524 247.273 57.964V61H246.492V52.838H247.273V56.809L247.119 56.512C247.303 56.094 247.596 55.7677 247.999 55.533C248.403 55.291 248.883 55.17 249.44 55.17ZM256.28 61.055C255.723 61.055 255.22 60.9303 254.773 60.681C254.333 60.4243 253.985 60.076 253.728 59.636C253.471 59.1887 253.343 58.679 253.343 58.107C253.343 57.5277 253.471 57.018 253.728 56.578C253.985 56.138 254.333 55.7933 254.773 55.544C255.213 55.2947 255.715 55.17 256.28 55.17C256.852 55.17 257.358 55.2947 257.798 55.544C258.245 55.7933 258.594 56.138 258.843 56.578C259.1 57.018 259.228 57.5277 259.228 58.107C259.228 58.679 259.1 59.1887 258.843 59.636C258.594 60.076 258.245 60.4243 257.798 60.681C257.351 60.9303 256.845 61.055 256.28 61.055ZM256.28 60.362C256.698 60.362 257.068 60.2703 257.391 60.087C257.714 59.8963 257.967 59.6323 258.15 59.295C258.341 58.9503 258.436 58.5543 258.436 58.107C258.436 57.6523 258.341 57.2563 258.15 56.919C257.967 56.5817 257.714 56.3213 257.391 56.138C257.068 55.9473 256.702 55.852 256.291 55.852C255.88 55.852 255.514 55.9473 255.191 56.138C254.868 56.3213 254.612 56.5817 254.421 56.919C254.23 57.2563 254.135 57.6523 254.135 58.107C254.135 58.5543 254.23 58.9503 254.421 59.295C254.612 59.6323 254.868 59.8963 255.191 60.087C255.514 60.2703 255.877 60.362 256.28 60.362ZM263.121 61.055C262.571 61.055 262.076 60.9303 261.636 60.681C261.204 60.4317 260.863 60.087 260.613 59.647C260.364 59.1997 260.239 58.6863 260.239 58.107C260.239 57.5203 260.364 57.007 260.613 56.567C260.863 56.127 261.204 55.786 261.636 55.544C262.076 55.2947 262.571 55.17 263.121 55.17C263.627 55.17 264.078 55.2837 264.474 55.511C264.878 55.7383 265.197 56.072 265.431 56.512C265.673 56.9447 265.794 57.4763 265.794 58.107C265.794 58.7303 265.677 59.262 265.442 59.702C265.208 60.142 264.889 60.4793 264.485 60.714C264.089 60.9413 263.635 61.055 263.121 61.055ZM263.176 60.362C263.587 60.362 263.954 60.2703 264.276 60.087C264.606 59.8963 264.863 59.6323 265.046 59.295C265.237 58.9503 265.332 58.5543 265.332 58.107C265.332 57.6523 265.237 57.2563 265.046 56.919C264.863 56.5817 264.606 56.3213 264.276 56.138C263.954 55.9473 263.587 55.852 263.176 55.852C262.773 55.852 262.41 55.9473 262.087 56.138C261.765 56.3213 261.508 56.5817 261.317 56.919C261.127 57.2563 261.031 57.6523 261.031 58.107C261.031 58.5543 261.127 58.9503 261.317 59.295C261.508 59.6323 261.765 59.8963 262.087 60.087C262.41 60.2703 262.773 60.362 263.176 60.362ZM265.354 61V59.262L265.431 58.096L265.321 56.93V52.838H266.102V61H265.354ZM269.828 61.055C269.352 61.055 268.901 60.989 268.475 60.857C268.05 60.7177 267.716 60.5453 267.474 60.34L267.826 59.724C268.061 59.9 268.362 60.054 268.728 60.186C269.095 60.3107 269.48 60.373 269.883 60.373C270.433 60.373 270.829 60.2887 271.071 60.12C271.313 59.944 271.434 59.713 271.434 59.427C271.434 59.2143 271.365 59.0493 271.225 58.932C271.093 58.8073 270.917 58.7157 270.697 58.657C270.477 58.591 270.232 58.536 269.96 58.492C269.689 58.448 269.418 58.3967 269.146 58.338C268.882 58.2793 268.64 58.195 268.42 58.085C268.2 57.9677 268.021 57.81 267.881 57.612C267.749 57.414 267.683 57.15 267.683 56.82C267.683 56.5047 267.771 56.2223 267.947 55.973C268.123 55.7237 268.38 55.5293 268.717 55.39C269.062 55.2433 269.48 55.17 269.971 55.17C270.345 55.17 270.719 55.2213 271.093 55.324C271.467 55.4193 271.775 55.5477 272.017 55.709L271.676 56.336C271.42 56.16 271.145 56.0353 270.851 55.962C270.558 55.8813 270.265 55.841 269.971 55.841C269.451 55.841 269.066 55.9327 268.816 56.116C268.574 56.292 268.453 56.5193 268.453 56.798C268.453 57.018 268.519 57.1903 268.651 57.315C268.791 57.4397 268.97 57.5387 269.19 57.612C269.418 57.678 269.663 57.733 269.927 57.777C270.199 57.821 270.466 57.876 270.73 57.942C271.002 58.0007 271.247 58.085 271.467 58.195C271.695 58.2977 271.874 58.448 272.006 58.646C272.146 58.8367 272.215 59.0897 272.215 59.405C272.215 59.7423 272.12 60.0357 271.929 60.285C271.746 60.527 271.475 60.7177 271.115 60.857C270.763 60.989 270.334 61.055 269.828 61.055Z" fill="black"/>
<rect width="380" height="40" rx="5" fill="url(#paint0_linear_193_2)"/>
<path d="M100.27 25.12C99.47 25.12 98.73 24.99 98.05 24.73C97.38 24.46 96.795 24.085 96.295 23.605C95.805 23.115 95.42 22.545 95.14 21.895C94.86 21.245 94.72 20.53 94.72 19.75C94.72 18.97 94.86 18.255 95.14 17.605C95.42 16.955 95.81 16.39 96.31 15.91C96.81 15.42 97.395 15.045 98.065 14.785C98.745 14.515 99.485 14.38 100.285 14.38C101.095 14.38 101.84 14.52 102.52 14.8C103.21 15.07 103.795 15.475 104.275 16.015L103.3 16.96C102.9 16.54 102.45 16.23 101.95 16.03C101.45 15.82 100.915 15.715 100.345 15.715C99.755 15.715 99.205 15.815 98.695 16.015C98.195 16.215 97.76 16.495 97.39 16.855C97.02 17.215 96.73 17.645 96.52 18.145C96.32 18.635 96.22 19.17 96.22 19.75C96.22 20.33 96.32 20.87 96.52 21.37C96.73 21.86 97.02 22.285 97.39 22.645C97.76 23.005 98.195 23.285 98.695 23.485C99.205 23.685 99.755 23.785 100.345 23.785C100.915 23.785 101.45 23.685 101.95 23.485C102.45 23.275 102.9 22.955 103.3 22.525L104.275 23.47C103.795 24.01 103.21 24.42 102.52 24.7C101.84 24.98 101.09 25.12 100.27 25.12ZM110.45 16.975C111.1 16.975 111.67 17.1 112.16 17.35C112.66 17.6 113.05 17.98 113.33 18.49C113.61 19 113.75 19.645 113.75 20.425V25H112.31V20.59C112.31 19.82 112.12 19.24 111.74 18.85C111.37 18.46 110.845 18.265 110.165 18.265C109.655 18.265 109.21 18.365 108.83 18.565C108.45 18.765 108.155 19.06 107.945 19.45C107.745 19.84 107.645 20.325 107.645 20.905V25H106.205V13.87H107.645V19.195L107.36 18.625C107.62 18.105 108.02 17.7 108.56 17.41C109.1 17.12 109.73 16.975 110.45 16.975ZM119.955 25.09C119.105 25.09 118.355 24.915 117.705 24.565C117.065 24.215 116.565 23.735 116.205 23.125C115.855 22.515 115.68 21.815 115.68 21.025C115.68 20.235 115.85 19.535 116.19 18.925C116.54 18.315 117.015 17.84 117.615 17.5C118.225 17.15 118.91 16.975 119.67 16.975C120.44 16.975 121.12 17.145 121.71 17.485C122.3 17.825 122.76 18.305 123.09 18.925C123.43 19.535 123.6 20.25 123.6 21.07C123.6 21.13 123.595 21.2 123.585 21.28C123.585 21.36 123.58 21.435 123.57 21.505H116.805V20.47H122.82L122.235 20.83C122.245 20.32 122.14 19.865 121.92 19.465C121.7 19.065 121.395 18.755 121.005 18.535C120.625 18.305 120.18 18.19 119.67 18.19C119.17 18.19 118.725 18.305 118.335 18.535C117.945 18.755 117.64 19.07 117.42 19.48C117.2 19.88 117.09 20.34 117.09 20.86V21.1C117.09 21.63 117.21 22.105 117.45 22.525C117.7 22.935 118.045 23.255 118.485 23.485C118.925 23.715 119.43 23.83 120 23.83C120.47 23.83 120.895 23.75 121.275 23.59C121.665 23.43 122.005 23.19 122.295 22.87L123.09 23.8C122.73 24.22 122.28 24.54 121.74 24.76C121.21 24.98 120.615 25.09 119.955 25.09ZM129.064 25.09C128.254 25.09 127.529 24.915 126.889 24.565C126.259 24.215 125.764 23.735 125.404 23.125C125.044 22.515 124.864 21.815 124.864 21.025C124.864 20.235 125.044 19.535 125.404 18.925C125.764 18.315 126.259 17.84 126.889 17.5C127.529 17.15 128.254 16.975 129.064 16.975C129.784 16.975 130.424 17.12 130.984 17.41C131.554 17.69 131.994 18.11 132.304 18.67L131.209 19.375C130.949 18.985 130.629 18.7 130.249 18.52C129.879 18.33 129.479 18.235 129.049 18.235C128.529 18.235 128.064 18.35 127.654 18.58C127.244 18.81 126.919 19.135 126.679 19.555C126.439 19.965 126.319 20.455 126.319 21.025C126.319 21.595 126.439 22.09 126.679 22.51C126.919 22.93 127.244 23.255 127.654 23.485C128.064 23.715 128.529 23.83 129.049 23.83C129.479 23.83 129.879 23.74 130.249 23.56C130.629 23.37 130.949 23.08 131.209 22.69L132.304 23.38C131.994 23.93 131.554 24.355 130.984 24.655C130.424 24.945 129.784 25.09 129.064 25.09ZM135.236 23.08L135.266 21.235L139.841 17.05H141.581L138.071 20.5L137.291 21.16L135.236 23.08ZM134.066 25V13.87H135.506V25H134.066ZM140.141 25L137.021 21.13L137.951 19.975L141.911 25H140.141ZM146.392 25.09C145.592 25.09 144.882 24.915 144.262 24.565C143.642 24.215 143.152 23.735 142.792 23.125C142.432 22.505 142.252 21.805 142.252 21.025C142.252 20.235 142.432 19.535 142.792 18.925C143.152 18.315 143.642 17.84 144.262 17.5C144.882 17.15 145.592 16.975 146.392 16.975C147.182 16.975 147.887 17.15 148.507 17.5C149.137 17.84 149.627 18.315 149.977 18.925C150.337 19.525 150.517 20.225 150.517 21.025C150.517 21.815 150.337 22.515 149.977 23.125C149.627 23.735 149.137 24.215 148.507 24.565C147.887 24.915 147.182 25.09 146.392 25.09ZM146.392 23.83C146.902 23.83 147.357 23.715 147.757 23.485C148.167 23.255 148.487 22.93 148.717 22.51C148.947 22.08 149.062 21.585 149.062 21.025C149.062 20.455 148.947 19.965 148.717 19.555C148.487 19.135 148.167 18.81 147.757 18.58C147.357 18.35 146.902 18.235 146.392 18.235C145.882 18.235 145.427 18.35 145.027 18.58C144.627 18.81 144.307 19.135 144.067 19.555C143.827 19.965 143.707 20.455 143.707 21.025C143.707 21.585 143.827 22.08 144.067 22.51C144.307 22.93 144.627 23.255 145.027 23.485C145.427 23.715 145.882 23.83 146.392 23.83ZM155.854 25.09C155.174 25.09 154.574 24.965 154.054 24.715C153.544 24.465 153.144 24.085 152.854 23.575C152.574 23.055 152.434 22.405 152.434 21.625V17.05H153.874V21.46C153.874 22.24 154.059 22.825 154.429 23.215C154.809 23.605 155.339 23.8 156.019 23.8C156.519 23.8 156.954 23.7 157.324 23.5C157.694 23.29 157.979 22.99 158.179 22.6C158.379 22.2 158.479 21.72 158.479 21.16V17.05H159.919V25H158.554V22.855L158.779 23.425C158.519 23.955 158.129 24.365 157.609 24.655C157.089 24.945 156.504 25.09 155.854 25.09ZM165.39 25.09C164.59 25.09 163.97 24.875 163.53 24.445C163.09 24.015 162.87 23.4 162.87 22.6V15.31H164.31V22.54C164.31 22.97 164.415 23.3 164.625 23.53C164.845 23.76 165.155 23.875 165.555 23.875C166.005 23.875 166.38 23.75 166.68 23.5L167.13 24.535C166.91 24.725 166.645 24.865 166.335 24.955C166.035 25.045 165.72 25.09 165.39 25.09ZM161.52 18.235V17.05H166.59V18.235H161.52ZM174.579 25L171.624 17.05H172.989L175.614 24.25H174.969L177.699 17.05H178.914L181.584 24.25H180.954L183.639 17.05H184.929L181.959 25H180.579L178.074 18.43H178.494L175.959 25H174.579ZM186.39 25V17.05H187.83V25H186.39ZM187.11 15.52C186.83 15.52 186.595 15.43 186.405 15.25C186.225 15.07 186.135 14.85 186.135 14.59C186.135 14.32 186.225 14.095 186.405 13.915C186.595 13.735 186.83 13.645 187.11 13.645C187.39 13.645 187.62 13.735 187.8 13.915C187.99 14.085 188.085 14.3 188.085 14.56C188.085 14.83 187.995 15.06 187.815 15.25C187.635 15.43 187.4 15.52 187.11 15.52ZM193.31 25.09C192.51 25.09 191.89 24.875 191.45 24.445C191.01 24.015 190.79 23.4 190.79 22.6V15.31H192.23V22.54C192.23 22.97 192.335 23.3 192.545 23.53C192.765 23.76 193.075 23.875 193.475 23.875C193.925 23.875 194.3 23.75 194.6 23.5L195.05 24.535C194.83 24.725 194.565 24.865 194.255 24.955C193.955 25.045 193.64 25.09 193.31 25.09ZM189.44 18.235V17.05H194.51V18.235H189.44ZM201.036 16.975C201.686 16.975 202.256 17.1 202.746 17.35C203.246 17.6 203.636 17.98 203.916 18.49C204.196 19 204.336 19.645 204.336 20.425V25H202.896V20.59C202.896 19.82 202.706 19.24 202.326 18.85C201.956 18.46 201.431 18.265 200.751 18.265C200.241 18.265 199.796 18.365 199.416 18.565C199.036 18.765 198.741 19.06 198.531 19.45C198.331 19.84 198.231 20.325 198.231 20.905V25H196.791V13.87H198.231V19.195L197.946 18.625C198.206 18.105 198.606 17.7 199.146 17.41C199.686 17.12 200.316 16.975 201.036 16.975ZM213.679 25.12C212.989 25.12 212.324 25.04 211.684 24.88C211.054 24.71 210.554 24.5 210.184 24.25L210.964 22.57C211.334 22.8 211.769 22.99 212.269 23.14C212.779 23.28 213.279 23.35 213.769 23.35C214.309 23.35 214.689 23.285 214.909 23.155C215.139 23.025 215.254 22.845 215.254 22.615C215.254 22.425 215.164 22.285 214.984 22.195C214.814 22.095 214.584 22.02 214.294 21.97C214.004 21.92 213.684 21.87 213.334 21.82C212.994 21.77 212.649 21.705 212.299 21.625C211.949 21.535 211.629 21.405 211.339 21.235C211.049 21.065 210.814 20.835 210.634 20.545C210.464 20.255 210.379 19.88 210.379 19.42C210.379 18.91 210.524 18.46 210.814 18.07C211.114 17.68 211.544 17.375 212.104 17.155C212.664 16.925 213.334 16.81 214.114 16.81C214.664 16.81 215.224 16.87 215.794 16.99C216.364 17.11 216.839 17.285 217.219 17.515L216.439 19.18C216.049 18.95 215.654 18.795 215.254 18.715C214.864 18.625 214.484 18.58 214.114 18.58C213.594 18.58 213.214 18.65 212.974 18.79C212.734 18.93 212.614 19.11 212.614 19.33C212.614 19.53 212.699 19.68 212.869 19.78C213.049 19.88 213.284 19.96 213.574 20.02C213.864 20.08 214.179 20.135 214.519 20.185C214.869 20.225 215.219 20.29 215.569 20.38C215.919 20.47 216.234 20.6 216.514 20.77C216.804 20.93 217.039 21.155 217.219 21.445C217.399 21.725 217.489 22.095 217.489 22.555C217.489 23.055 217.339 23.5 217.039 23.89C216.739 24.27 216.304 24.57 215.734 24.79C215.174 25.01 214.489 25.12 213.679 25.12ZM222.233 25.12C221.283 25.12 220.543 24.88 220.013 24.4C219.483 23.91 219.218 23.185 219.218 22.225V15.145H221.558V22.195C221.558 22.535 221.648 22.8 221.828 22.99C222.008 23.17 222.253 23.26 222.563 23.26C222.933 23.26 223.248 23.16 223.508 22.96L224.138 24.61C223.898 24.78 223.608 24.91 223.268 25C222.938 25.08 222.593 25.12 222.233 25.12ZM217.973 18.91V17.11H223.568V18.91H217.973ZM225.451 25V16.93H227.686V19.21L227.371 18.55C227.611 17.98 227.996 17.55 228.526 17.26C229.056 16.96 229.701 16.81 230.461 16.81V18.97C230.361 18.96 230.271 18.955 230.191 18.955C230.111 18.945 230.026 18.94 229.936 18.94C229.296 18.94 228.776 19.125 228.376 19.495C227.986 19.855 227.791 20.42 227.791 21.19V25H225.451ZM231.867 25V16.93H234.207V25H231.867ZM233.037 15.805C232.607 15.805 232.257 15.68 231.987 15.43C231.717 15.18 231.582 14.87 231.582 14.5C231.582 14.13 231.717 13.82 231.987 13.57C232.257 13.32 232.607 13.195 233.037 13.195C233.467 13.195 233.817 13.315 234.087 13.555C234.357 13.785 234.492 14.085 234.492 14.455C234.492 14.845 234.357 15.17 234.087 15.43C233.827 15.68 233.477 15.805 233.037 15.805ZM241.149 25.12C240.469 25.12 239.874 24.97 239.364 24.67C238.854 24.37 238.454 23.915 238.164 23.305C237.884 22.685 237.744 21.905 237.744 20.965C237.744 20.015 237.879 19.235 238.149 18.625C238.419 18.015 238.809 17.56 239.319 17.26C239.829 16.96 240.439 16.81 241.149 16.81C241.909 16.81 242.589 16.985 243.189 17.335C243.799 17.675 244.279 18.155 244.629 18.775C244.989 19.395 245.169 20.125 245.169 20.965C245.169 21.815 244.989 22.55 244.629 23.17C244.279 23.79 243.799 24.27 243.189 24.61C242.589 24.95 241.909 25.12 241.149 25.12ZM236.379 27.91V16.93H238.614V18.58L238.569 20.98L238.719 23.365V27.91H236.379ZM240.744 23.2C241.134 23.2 241.479 23.11 241.779 22.93C242.089 22.75 242.334 22.495 242.514 22.165C242.704 21.825 242.799 21.425 242.799 20.965C242.799 20.495 242.704 20.095 242.514 19.765C242.334 19.435 242.089 19.18 241.779 19C241.479 18.82 241.134 18.73 240.744 18.73C240.354 18.73 240.004 18.82 239.694 19C239.384 19.18 239.139 19.435 238.959 19.765C238.779 20.095 238.689 20.495 238.689 20.965C238.689 21.425 238.779 21.825 238.959 22.165C239.139 22.495 239.384 22.75 239.694 22.93C240.004 23.11 240.354 23.2 240.744 23.2ZM250.74 25.12C249.82 25.12 249.01 24.94 248.31 24.58C247.62 24.22 247.085 23.73 246.705 23.11C246.325 22.48 246.135 21.765 246.135 20.965C246.135 20.155 246.32 19.44 246.69 18.82C247.07 18.19 247.585 17.7 248.235 17.35C248.885 16.99 249.62 16.81 250.44 16.81C251.23 16.81 251.94 16.98 252.57 17.32C253.21 17.65 253.715 18.13 254.085 18.76C254.455 19.38 254.64 20.125 254.64 20.995C254.64 21.085 254.635 21.19 254.625 21.31C254.615 21.42 254.605 21.525 254.595 21.625H248.04V20.26H253.365L252.465 20.665C252.465 20.245 252.38 19.88 252.21 19.57C252.04 19.26 251.805 19.02 251.505 18.85C251.205 18.67 250.855 18.58 250.455 18.58C250.055 18.58 249.7 18.67 249.39 18.85C249.09 19.02 248.855 19.265 248.685 19.585C248.515 19.895 248.43 20.265 248.43 20.695V21.055C248.43 21.495 248.525 21.885 248.715 22.225C248.915 22.555 249.19 22.81 249.54 22.99C249.9 23.16 250.32 23.245 250.8 23.245C251.23 23.245 251.605 23.18 251.925 23.05C252.255 22.92 252.555 22.725 252.825 22.465L254.07 23.815C253.7 24.235 253.235 24.56 252.675 24.79C252.115 25.01 251.47 25.12 250.74 25.12Z" fill="white"/>
<circle cx="274" cy="20" r="13" fill="#9975F7"/>
<path d="M265.714 9.98224C266.881 9.01606 268.219 8.24983 269.677 7.73608L280.5 19.5001L269.638 32.2504C268.196 31.7368 266.87 30.9755 265.714 30.0179L273 20.0001L265.714 9.98224Z" fill="white"/>
<defs>
<linearGradient id="paint0_linear_193_2" x1="0" y1="20" x2="380" y2="20" gradientUnits="userSpaceOnUse">
<stop stop-color="#4E4073"/>
<stop offset="1" stop-color="#32335A"/>
</linearGradient>
<clipPath id="clip0_193_2">
<rect width="28" height="19" fill="white" transform="translate(68 71)"/>
</clipPath>
<clipPath id="clip1_193_2">
<rect width="28" height="19" fill="white" transform="translate(108 71)"/>
</clipPath>
<clipPath id="clip2_193_2">
<rect width="28" height="19" fill="white" transform="translate(148 71)"/>
</clipPath>
<clipPath id="clip3_193_2">
<rect width="28" height="19" fill="white" transform="translate(188 71)"/>
</clipPath>
<clipPath id="clip4_193_2">
<rect width="28" height="19" fill="white" transform="translate(228 71)"/>
</clipPath>
<clipPath id="clip5_193_2">
<rect width="45" height="19" fill="white" transform="translate(268 71)"/>
</clipPath>
</defs>
</svg>
